<?xml version="1.0" encoding="UTF-8" standalone="no"?>
<!-- Created with Inkscape (http://www.inkscape.org/) -->

<svg
   width="11.692913in"
   height="16.535433in"
   viewBox="0 0 1122.4837 1587.3507"
   version="1.1"
   id="svg5"
   xml:space="preserve"
   xmlns="http://www.w3.org/2000/svg"
   xmlns:svg="http://www.w3.org/2000/svg"><defs
     id="defs2" /><g
     id="layer1"><g
       id="Layer_1"
       transform="translate(138.99457,64.613267)"><g
         id="g186"
         transform="matrix(1.3208,0,0,1.3208,-95.620435,-7.4421761)"><g
           id="g136"><path
             d="M 558.425,17.008 V 561.26 H 515.906 V 17.008 Z"
             fill-opacity="0"
             stroke="#2e00ff"
             stroke-width="0.5"
             id="path132" /><path
             d="M 600.945,17.008 V 561.26 h -42.52 V 17.008 Z"
             fill-opacity="0"
             stroke="#2e00ff"
             stroke-width="0.5"
             id="path134" /></g><g
           id="g142"><path
             d="M 643.465,17.008 V 561.26 h -42.52 V 17.008 Z"
             fill-opacity="0"
             stroke="#2e00ff"
             stroke-width="0.5"
             id="path138" /><path
             d="M 685.984,17.008 V 561.26 H 643.465 V 17.008 Z"
             fill-opacity="0"
             stroke="#2e00ff"
             stroke-width="0.5"
             id="path140" /></g><g
           id="g148"><path
             d="M 388.346,17.008 V 561.26 H 345.827 V 17.008 Z"
             fill-opacity="0"
             stroke="#2e00ff"
             stroke-width="0.5"
             id="path144" /><path
             d="M 430.866,17.008 V 561.26 h -42.52 V 17.008 Z"
             fill-opacity="0"
             stroke="#2e00ff"
             stroke-width="0.5"
             id="path146" /></g><g
           id="g154"><path
             d="M 473.386,17.008 V 561.26 h -42.52 V 17.008 Z"
             fill-opacity="0"
             stroke="#2e00ff"
             stroke-width="0.5"
             id="path150" /><path
             d="M 515.905,17.008 V 561.26 H 473.386 V 17.008 Z"
             fill-opacity="0"
             stroke="#2e00ff"
             stroke-width="0.5"
             id="path152" /></g><g
           id="g160"><path
             d="M 218.266,17.008 V 561.26 h -42.52 V 17.008 Z"
             fill-opacity="0"
             stroke="#2e00ff"
             stroke-width="0.5"
             id="path156" /><path
             d="M 260.785,17.008 V 561.26 H 218.266 V 17.008 Z"
             fill-opacity="0"
             stroke="#2e00ff"
             stroke-width="0.5"
             id="path158" /></g><g
           id="g166"><path
             d="M 303.305,17.008 V 561.26 h -42.52 V 17.008 Z"
             fill-opacity="0"
             stroke="#2e00ff"
             stroke-width="0.5"
             id="path162" /><path
             d="M 345.825,17.008 V 561.26 h -42.52 V 17.008 Z"
             fill-opacity="0"
             stroke="#2e00ff"
             stroke-width="0.5"
             id="path164" /></g><g
           id="g172"><path
             d="M 48.189,17.008 V 561.26 H 5.669 V 17.008 Z"
             fill-opacity="0"
             stroke="#2e00ff"
             stroke-width="0.5"
             id="path168" /><path
             d="M 90.709,17.008 V 561.26 H 48.189 V 17.008 Z"
             fill-opacity="0"
             stroke="#2e00ff"
             stroke-width="0.5"
             id="path170" /></g><g
           id="g178"><path
             d="M 133.228,17.008 V 561.26 H 90.708 V 17.008 Z"
             fill-opacity="0"
             stroke="#2e00ff"
             stroke-width="0.5"
             id="path174" /><path
             d="M 175.748,17.008 V 561.26 h -42.52 V 17.008 Z"
             fill-opacity="0"
             stroke="#2e00ff"
             stroke-width="0.5"
             id="path176" /></g><g
           id="g184"><path
             d="M 728.504,17.008 V 561.26 h -42.52 V 17.008 Z"
             fill-opacity="0"
             stroke="#2e00ff"
             stroke-width="0.5"
             id="path180" /><path
             d="M 771.024,17.008 V 561.26 h -42.52 V 17.008 Z"
             fill-opacity="0"
             stroke="#2e00ff"
             stroke-width="0.5"
             id="path182" /></g></g><path
         d="m 670.02752,717.0219 v -5.61604 H 613.8671 v 5.61604 z m -449.28069,-5.61604 h -56.15909 v 5.61604 h 56.15909 z m 336.96118,0 h -56.16042 v 5.61604 h 56.16042 z m -224.64034,0 h -56.16042 v 5.61604 h 56.16042 z m 112.31951,0 h -56.16042 v 5.61604 h 56.16042 z m -449.2793727,0 H -60.052609 v 5.61604 h 56.1604163 z m 112.3195127,0 H 52.266902 v 5.61604 h 56.160418 z m 673.91971,0 h -56.15909 v 5.61604 h 56.15909 z m 112.32083,0 h -56.16041 v 5.61604 h 56.16041 z M 670.02752,655.24545 V 649.6294 H 641.94731 613.8671 v 5.61605 z M 192.66795,649.6294 h -28.08021 v 5.61605 h 56.15909 v -5.61605 z m 336.95985,0 h -28.08021 v 5.61605 h 56.16042 v -5.61605 z m -224.64034,0 h -28.08021 v 5.61605 h 56.16042 v -5.61605 z m 112.31951,0 h -28.08021 v 5.61605 h 56.16042 v -5.61605 z m -449.279371,0 h -28.080208 v 5.61605 h 56.1604163 v -5.61605 z m 112.319511,0 H 52.266902 v 5.61605 h 56.160418 v -5.61605 z m 673.91971,0 h -28.07888 v 5.61605 h 56.15909 v -5.61605 z m 112.32084,0 h -28.08021 v 5.61605 h 56.16041 V 649.6294 Z M 670.02752,593.47031 v -5.61604 H 613.8671 v 5.61604 z m -561.6002,-5.61604 H 52.266902 v 5.61604 h 56.160418 z m 336.95986,0 h -56.16042 v 5.61604 h 56.16042 z m 112.32083,0 h -56.16042 v 5.61604 h 56.16042 z m -224.64034,0 h -56.16042 v 5.61604 h 56.16042 z m -112.32084,0 h -56.15909 v 5.61604 h 56.15909 z m -224.6390227,0 H -60.052609 v 5.61604 h 56.1604163 z m 898.5600527,0 h -56.16041 v 5.61604 h 56.16041 z m -112.32083,0 h -56.15909 v 5.61604 h 56.15909 z m -561.6002,-61.77646 h -56.15909 v 5.61604 h 28.08021 28.07888 z m 336.96118,0 h -56.16042 v 5.61604 h 28.08021 28.08021 z m -224.64034,0 h -56.16042 v 5.61604 h 28.08021 28.08021 z m 112.31951,0 h -56.16042 v 5.61604 h 28.08021 28.08021 z m -449.2793727,0 H -60.052609 v 5.61604 h 28.080208 28.0802083 z m 112.3195127,0 H 52.266902 v 5.61604 h 28.080208 28.08021 z m 533.51999,5.61604 h 28.08021 v -5.61604 H 613.8671 v 5.61604 z m 252.72055,-5.61604 h -56.16041 v 5.61604 h 28.08021 28.0802 z m -112.32083,0 h -56.15909 v 5.61604 h 28.07888 28.08021 z M 670.02752,469.91739 v -5.61604 H 613.8671 v 5.61604 z m -449.28069,-5.61604 h -56.15909 v 5.61604 h 56.15909 z m 336.96118,0 h -56.16042 v 5.61604 h 56.16042 z m -224.64034,0 h -56.16042 v 5.61604 h 56.16042 z m 112.31951,0 h -56.16042 v 5.61604 h 56.16042 z m -449.2793727,0 H -60.052609 v 5.61604 h 56.1604163 z m 112.3195127,0 H 52.266902 v 5.61604 h 56.160418 z m 673.91971,0 h -56.15909 v 5.61604 h 56.15909 z m 112.32083,0 h -56.16041 v 5.61604 h 56.16041 z M 220.74683,402.52622 h -56.15909 v 5.61604 h 28.08021 28.07888 z m 336.96118,0 h -56.16042 v 5.61604 h 28.08021 28.08021 z m -224.64034,0 h -56.16042 v 5.61604 h 28.08021 28.08021 z m 112.31951,0 h -56.16042 v 5.61604 h 28.08021 28.08021 z m -449.2793727,0 H -60.052609 v 5.61604 h 28.080208 28.0802083 z m 112.3195127,0 H 52.266902 v 5.61604 h 28.080208 28.08021 z m 533.51999,5.61604 h 28.08021 v -5.61604 H 613.8671 v 5.61604 z m 252.72055,-5.61604 h -56.16041 v 5.61604 h 28.08021 28.0802 z m -112.32083,0 h -56.15909 v 5.61604 h 28.07888 28.08021 z M 108.42732,340.74976 H 52.266902 v 5.61604 h 28.080208 28.08021 z m 336.95986,0 h -56.16042 v 5.61604 h 28.08021 28.08021 z m 112.32083,0 h -56.16042 v 5.61604 h 28.08021 28.08021 z m -224.64034,0 h -56.16042 v 5.61604 h 28.08021 28.08021 z m -112.32084,0 h -56.15909 v 5.61604 h 28.08021 28.07888 z m -224.6390227,0 H -60.052609 v 5.61604 h 28.080208 28.0802083 z m 898.5600527,0 h -56.16041 v 5.61604 h 28.08021 28.0802 z m -112.32083,0 h -56.15909 v 5.61604 h 28.07888 28.08021 z m -168.47993,0 v 5.61604 h 28.08021 28.08021 v -5.61604 z m 56.16042,-56.16042 V 278.9733 H 613.8671 v 5.61604 z M 220.74683,278.9733 h -56.15909 v 5.61604 h 56.15909 z m 336.96118,0 h -56.16042 v 5.61604 h 56.16042 z m -224.64034,0 h -56.16042 v 5.61604 h 56.16042 z m 112.31951,0 h -56.16042 v 5.61604 h 56.16042 z m -449.2793727,0 H -60.052609 v 5.61604 h 56.1604163 z m 112.3195127,0 H 52.266902 v 5.61604 h 56.160418 z m 673.91971,0 h -56.15909 v 5.61604 h 56.15909 z m 112.32083,0 h -56.16041 v 5.61604 h 56.16041 z M 641.94731,217.19817 H 613.8671 v 5.61604 h 56.16042 v -5.61604 z m -421.20048,0 h -28.07888 -28.08021 v 5.61604 h 56.15909 z m 336.96118,0 H 529.6278 501.54759 v 5.61604 h 56.16042 z m -224.64034,0 h -28.08021 -28.08021 v 5.61604 h 56.16042 z m 112.31951,0 h -28.08021 -28.08021 v 5.61604 h 56.16042 z m -449.2793727,0 H -31.972401 -60.052609 v 5.61604 h 56.1604163 z m 112.3195127,0 H 80.34711 52.266902 v 5.61604 h 56.160418 z m 673.91971,0 h -28.08021 -28.07888 v 5.61604 h 56.15909 z m 112.32083,0 h -28.0802 -28.08021 v 5.61604 h 56.16041 z M 641.94731,155.42171 H 613.8671 v 5.61604 h 56.16042 v -5.61604 z m -84.2393,0 H 529.6278 501.54759 v 5.61604 h 56.16042 z m -224.64034,0 h -28.08021 -28.08021 v 5.61604 h 56.16042 z m 112.31951,0 h -28.08021 -28.08021 v 5.61604 h 56.16042 z m -224.64035,0 h -28.07888 -28.08021 v 5.61604 h 56.15909 z m -224.6390227,0 H -31.972401 -60.052609 v 5.61604 h 56.1604163 z m 112.3195127,0 H 80.34711 52.266902 v 5.61604 h 56.160418 z m 786.24054,0 h -28.0802 -28.08021 v 5.61604 h 56.16041 z m -112.32083,0 h -28.08021 -28.07888 v 5.61604 h 56.15909 z M 557.70801,93.645253 h -56.16042 v 5.617362 l 28.08021,-0.0013 28.08021,0.0013 z m -224.64034,0 h -56.16042 v 5.617362 l 28.08021,-0.0013 28.08021,0.0013 z m 112.31951,0 h -56.16042 v 5.617362 l 28.08021,-0.0013 28.08021,0.0013 z m -224.64035,0 h -56.15909 v 5.617362 l 28.08021,-0.0013 28.07888,0.0013 z m -224.6390227,0 H -60.052609 v 5.617362 l 28.080208,-0.0013 28.0802083,0.0013 z m 112.3195127,0 H 52.266902 v 5.617362 l 28.080208,-0.0013 28.08021,0.0013 z m 533.51999,5.616041 28.08021,0.0013 V 93.645232 H 613.8671 v 5.617362 z m 252.72055,-5.616041 h -56.16041 v 5.617362 l 28.08021,-0.0013 28.0802,0.0013 z m -112.32083,0 h -56.15909 v 5.617362 l 28.07888,-0.0013 28.08021,0.0013 z M 670.02752,37.486158 V 31.870116 H 613.8671 v 5.616042 z M 220.74683,31.870116 h -56.15909 v 5.616042 h 56.15909 z m 336.96118,0 h -56.16042 v 5.616042 h 56.16042 z m -224.64034,0 h -56.16042 v 5.616042 h 56.16042 z m 112.31951,0 h -56.16042 v 5.616042 h 56.16042 z m -449.2793727,0 H -60.052609 v 5.616042 h 56.1604163 z m 112.3195127,0 H 52.266902 v 5.616042 h 56.160418 z m 673.91971,0 h -56.15909 v 5.616042 h 56.15909 z m 112.32083,0 h -56.16041 v 5.616042 h 56.16041 z"
         fill-opacity="0"
         stroke="#ff0000"
         stroke-width="0.6604"
         id="path188" /><g
         id="g200"
         transform="matrix(1.3208,0,0,1.3208,-95.620435,-7.4421761)"><path
           d="m 102.047,617.953 h 544.252 v 42.52 H 102.047 Z"
           fill-opacity="0"
           stroke="#2e00ff"
           stroke-width="0.5"
           id="path196" /><path
           d="m 102.047,575.433 h 544.252 v 42.52 H 102.047 Z"
           fill-opacity="0"
           stroke="#2e00ff"
           stroke-width="0.5"
           id="path198" /></g><path
         d="m 56.01137,836.83035 h 5.616042 V 780.66994 H 56.01137 Z m 61.77646,0 h 5.61604 v -56.16041 h -5.61604 z m 61.77646,0 h 5.61472 v -56.16041 h -5.61472 z m 61.77514,0 h 5.61604 v -56.16041 h -5.61604 z m 61.77645,0 h 5.61605 v -56.16041 h -5.61605 v 28.0802 z m 61.77514,0 h 5.61604 v -56.16041 h -5.61604 v 28.0802 z m 61.77646,0 h 5.61604 v -28.08021 -28.0802 h -5.61604 z m 61.77646,0 h 5.61604 v -56.16041 h -5.61604 v 28.0802 z m 61.77513,0 h 5.61605 v -56.16041 h -5.61605 z m 61.77646,0 h 5.61604 v -56.16041 h -5.61604 z m 61.77646,0 h 5.61604 v -56.16041 h -5.61604 v 28.0802 z m 61.77514,0 h 5.61604 v -56.16041 h -5.61604 v 28.0802 z"
         fill-opacity="0"
         stroke="#ff0000"
         stroke-width="0.6604"
         id="path208" /><g
         id="g840"
         transform="matrix(1.3208,0,0,1.3208,-95.620435,-7.4421761)"><g
           id="g194"><path
             d="M 48.189,714.331 H 705.827 V 756.85 H 48.189 Z"
             fill-opacity="0"
             stroke="#2e00ff"
             stroke-width="0.5"
             id="path190" /><path
             d="m 48.189,671.811 h 657.638 v 42.52 H 48.189 Z"
             fill-opacity="0"
             stroke="#2e00ff"
             stroke-width="0.5"
             id="path192" /></g><g
           id="g206"><path
             d="m 48.189,799.37 h 657.638 v 42.52 H 48.189 Z"
             fill-opacity="0"
             stroke="#2e00ff"
             stroke-width="0.5"
             id="path202" /><path
             d="m 48.189,756.85 h 657.638 v 42.52 H 48.189 Z"
             fill-opacity="0"
             stroke="#2e00ff"
             stroke-width="0.5"
             id="path204" /></g><path
           d="m 633.243,735.526 h 4.252 v -42.455 h -4.252 z m -42.519,-42.455 h -4.252 v 21.195 21.26 h 4.252 z M 539.7,735.526 h 4.252 V 693.071 H 539.7 Z m -42.519,-42.455 h -4.253 l 10e-4,21.195 -10e-4,21.26 h 4.253 z m -51.024,42.455 h 4.252 v -21.26 -21.195 h -4.252 z m -42.52,-42.455 h -4.252 v 21.26 21.195 h 4.252 z m -51.023,42.455 h 4.252 v -21.26 -21.195 h -4.252 z m -46.772,0 h 4.252 v -42.455 h -4.252 z m -42.52,-42.455 h -4.252 v 21.195 21.26 h 4.252 z m -51.023,42.455 h 4.252 v -42.455 h -4.252 z m -46.772,0 h 4.252 v -42.455 h -4.252 z m -46.772,0 h 4.252 v -21.26 -21.195 h -4.252 z m 544.252,-0.504 h 24.441 v -41.447 h -24.441 z"
           fill-opacity="0"
           stroke="#ff0000"
           stroke-width="0.5"
           id="path210" /><path
           d="m 67.774828,756.79545 v 24.20172 h 24.354344 v -24.20172"
           fill-opacity="0"
           stroke="#ff0000"
           stroke-width="0.621862"
           id="path212" /><path
           d="m 663.38669,756.81058 v 24.22366 h 24.20462 v -24.22366"
           fill-opacity="0"
           stroke="#ff0000"
           stroke-width="0.595881"
           id="path214" /><path
           d="M 67.732,756.85"
           fill-opacity="0"
           stroke="#ff0000"
           stroke-width="0.5"
           id="path216" /><path
           d="m 633.243,820.583 h 4.252 V 778.11 h -4.252 v 42.473"
           fill-opacity="0"
           stroke="#ff0000"
           stroke-width="0.5"
           id="path218" /><path
           d="m 590.724,778.11 h -4.252 v 21.213 21.26 h 4.252 V 778.11"
           fill-opacity="0"
           stroke="#ff0000"
           stroke-width="0.5"
           id="path220" /><path
           d="m 539.7,820.583 h 4.252 V 778.11 H 539.7 v 42.473"
           fill-opacity="0"
           stroke="#ff0000"
           stroke-width="0.5"
           id="path222" /><path
           d="m 497.18,778.11 h -4.252 l 10e-4,21.213 -10e-4,21.26 h 4.252 V 778.11"
           fill-opacity="0"
           stroke="#ff0000"
           stroke-width="0.5"
           id="path224" /><path
           d="m 446.157,820.583 h 4.252 V 778.11 h -4.252 v 42.473"
           fill-opacity="0"
           stroke="#ff0000"
           stroke-width="0.5"
           id="path226" /><path
           d="m 399.385,820.583 h 4.252 V 778.11 h -4.252 v 42.473"
           fill-opacity="0"
           stroke="#ff0000"
           stroke-width="0.5"
           id="path228" /><path
           d="m 352.614,820.583 h 4.252 l -10e-4,-21.26 10e-4,-21.213 h -4.252 v 42.473"
           fill-opacity="0"
           stroke="#ff0000"
           stroke-width="0.5"
           id="path230" /><path
           d="m 305.842,820.583 h 4.252 V 778.11 h -4.252 v 42.473"
           fill-opacity="0"
           stroke="#ff0000"
           stroke-width="0.5"
           id="path232" /><path
           d="m 263.322,778.11 h -4.252 v 21.213 21.26 h 4.252 V 778.11"
           fill-opacity="0"
           stroke="#ff0000"
           stroke-width="0.5"
           id="path234" /><path
           d="m 212.299,820.583 h 4.252 V 778.11 h -4.252 v 42.473"
           fill-opacity="0"
           stroke="#ff0000"
           stroke-width="0.5"
           id="path236" /><path
           d="m 165.527,820.583 h 4.252 V 778.11 h -4.252 v 42.473"
           fill-opacity="0"
           stroke="#ff0000"
           stroke-width="0.5"
           id="path238" /><path
           d="m 118.755,820.583 h 4.252 v -21.26 -21.213 h -4.252 v 42.473"
           fill-opacity="0"
           stroke="#ff0000"
           stroke-width="0.5"
           id="path240" /></g></g></g></svg>
