<?xml version="1.0" encoding="UTF-8" standalone="no"?>
<!-- Created with Inkscape (http://www.inkscape.org/) -->

<svg
   width="300mm"
   height="300mm"
   viewBox="0 0 300 300"
   version="1.1"
   id="svg279"
   inkscape:version="1.2.1 (9c6d41e410, 2022-07-14)"
   sodipodi:docname="Backplate_0_01pt_with_engrave.svg"
   xmlns:inkscape="http://www.inkscape.org/namespaces/inkscape"
   xmlns:sodipodi="http://sodipodi.sourceforge.net/DTD/sodipodi-0.dtd"
   xmlns="http://www.w3.org/2000/svg"
   xmlns:svg="http://www.w3.org/2000/svg">
  <sodipodi:namedview
     id="namedview281"
     pagecolor="#ffffff"
     bordercolor="#666666"
     borderopacity="1.0"
     inkscape:pageshadow="2"
     inkscape:pageopacity="0.0"
     inkscape:pagecheckerboard="0"
     inkscape:document-units="mm"
     showgrid="false"
     inkscape:zoom="0.70589163"
     inkscape:cx="-20.541397"
     inkscape:cy="735.24034"
     inkscape:window-width="1920"
     inkscape:window-height="1017"
     inkscape:window-x="-8"
     inkscape:window-y="-5"
     inkscape:window-maximized="1"
     inkscape:current-layer="text5476-5"
     inkscape:showpageshadow="2"
     inkscape:deskcolor="#d1d1d1" />
  <defs
     id="defs276">
    <rect
       x="466.19727"
       y="917.41893"
       width="227.23861"
       height="103.52705"
       id="rect5478" />
    <rect
       x="466.19727"
       y="917.41895"
       width="227.23862"
       height="103.52705"
       id="rect5478-6" />
    <rect
       x="466.19727"
       y="917.41895"
       width="420.71418"
       height="215.53921"
       id="rect5478-6-0" />
    <rect
       x="466.19727"
       y="917.41895"
       width="227.23862"
       height="103.52705"
       id="rect5478-6-7" />
  </defs>
  <g
     inkscape:label="Layer 1"
     inkscape:groupmode="layer"
     id="layer1">
    <path
       d="M 32.642404,46.768851 H 262.63887 V 276.76532 H 32.642404 Z"
       fill-opacity="0"
       stroke="#ff0000"
       stroke-width="0.1"
       id="path2"
       style="stroke-width:0.01;stroke-miterlimit:4;stroke-dasharray:none" />
    <circle
       style="fill:none;fill-opacity:1;stroke:#ff0000;stroke-width:0.01;stroke-miterlimit:4;stroke-dasharray:none;stroke-opacity:1"
       id="path1814"
       cx="147.66168"
       cy="268.77344"
       r="5.9981833" />
    <circle
       style="fill:none;fill-opacity:1;stroke:#ff0000;stroke-width:0.01;stroke-miterlimit:4;stroke-dasharray:none;stroke-opacity:1"
       id="path1814-9"
       cx="46.601009"
       cy="161.76709"
       r="1.9980378" />
    <g
       aria-label="DC 
5V/3A"
       transform="matrix(0.26458333,0,0,0.26458333,-5.3404872,3.4454756)"
       id="text5476"
       style="font-size:21.3333px;white-space:pre;stroke-width:0.377953">
      <g
         id="g25300"
         transform="translate(3.963535)">
        <path
           d="m 575.58725,929.14141 q 0,2.11458 -0.92709,3.83333 -0.91666,1.71875 -2.44791,2.66666 -1.0625,0.65625 -2.37499,0.94792 -1.30209,0.29166 -3.4375,0.29166 h -3.91666 v -15.51039 h 3.87499 q 2.27083,0 3.60417,0.33334 1.34374,0.32291 2.27082,0.89583 1.58334,0.98958 2.46875,2.63541 0.88542,1.64583 0.88542,3.90624 z m -2.15625,-0.0312 q 0,-1.82291 -0.63542,-3.07291 -0.63541,-1.25 -1.89583,-1.96874 -0.91666,-0.52084 -1.94791,-0.71875 -1.03125,-0.20834 -2.46875,-0.20834 h -1.93749 v 11.96873 h 1.93749 q 1.48958,0 2.59375,-0.21875 1.11458,-0.21875 2.04166,-0.81249 1.15625,-0.73959 1.72917,-1.94792 0.58333,-1.20833 0.58333,-3.02083 z"
           id="path22261" />
        <path
           d="m 590.89972,935.75599 q -0.57291,0.25 -1.04166,0.46875 -0.45834,0.21875 -1.20834,0.45833 -0.63541,0.19791 -1.38541,0.33333 -0.73958,0.14583 -1.63541,0.14583 -1.6875,0 -3.07292,-0.46874 -1.37499,-0.47917 -2.39583,-1.48959 -0.99999,-0.98958 -1.56249,-2.51041 -0.5625,-1.53125 -0.5625,-3.55208 0,-1.91666 0.54166,-3.42707 0.54167,-1.51042 1.5625,-2.55208 0.98958,-1.01042 2.38541,-1.54167 1.40625,-0.53125 3.11458,-0.53125 1.25,0 2.48958,0.30209 1.25,0.30208 2.77083,1.06249 v 2.44792 h -0.15625 q -1.28125,-1.07292 -2.54166,-1.5625 -1.26042,-0.48958 -2.69791,-0.48958 -1.17708,0 -2.125,0.38541 -0.9375,0.375 -1.67708,1.17708 -0.71875,0.78125 -1.125,1.97917 -0.39583,1.1875 -0.39583,2.74999 0,1.63542 0.4375,2.8125 0.44791,1.17708 1.14583,1.91666 0.72916,0.77083 1.69791,1.14583 0.97917,0.36459 2.0625,0.36459 1.48958,0 2.79166,-0.51042 1.30208,-0.51041 2.4375,-1.53125 h 0.14583 z"
           id="path22263" />
      </g>
      <g
         id="g25296">
        <path
           d="m 558.87894,958.62054 q 0,1.08333 -0.39583,2.07291 -0.39584,0.98958 -1.08334,1.66666 -0.74999,0.72917 -1.79166,1.125 -1.03125,0.38542 -2.39583,0.38542 -1.27083,0 -2.44791,-0.27084 -1.17708,-0.26041 -1.98958,-0.63541 v -2.19791 h 0.14583 q 0.85417,0.54166 2,0.92708 1.14583,0.375 2.25,0.375 0.73958,0 1.42708,-0.20834 0.69791,-0.20833 1.23958,-0.72916 0.45833,-0.44792 0.6875,-1.07292 0.23958,-0.625 0.23958,-1.44791 0,-0.80208 -0.28125,-1.35417 -0.27083,-0.55208 -0.76042,-0.88541 -0.54166,-0.39583 -1.32291,-0.55208 -0.77083,-0.16667 -1.72916,-0.16667 -0.91667,0 -1.77083,0.125 -0.84375,0.125 -1.45834,0.25 v -7.98957 h 9.33332 v 1.82291 h -7.3229 v 4.125 q 0.44791,-0.0417 0.91666,-0.0625 0.46875,-0.0208 0.8125,-0.0208 1.26042,0 2.20833,0.21875 0.94792,0.20834 1.73958,0.75 0.83333,0.57292 1.29167,1.47917 0.45833,0.90624 0.45833,2.27083 z"
           id="path22265" />
        <path
           d="m 574.70183,948.03722 -5.64582,15.51039 h -2.75 l -5.64582,-15.51039 h 2.20833 l 4.86457,13.64581 4.86458,-13.64581 z"
           id="path22267" />
        <path
           d="m 583.93098,947.3393 -7.46873,19.37497 h -1.80208 l 7.43748,-19.37497 z"
           id="path22269" />
        <path
           d="m 595.47263,956.07887 q 0.5,0.44792 0.82292,1.125 0.32291,0.67708 0.32291,1.75 0,1.0625 -0.38541,1.94791 -0.38542,0.88542 -1.08333,1.54167 -0.78125,0.72916 -1.84375,1.08333 -1.05208,0.34375 -2.3125,0.34375 -1.29166,0 -2.54166,-0.3125 -1.25,-0.30209 -2.05208,-0.66667 v -2.17708 h 0.15625 q 0.88542,0.58333 2.08333,0.96875 1.19792,0.38542 2.3125,0.38542 0.65625,0 1.39583,-0.21875 0.73958,-0.21875 1.19791,-0.64584 0.47917,-0.45833 0.70833,-1.01041 0.23959,-0.55208 0.23959,-1.39583 0,-0.83333 -0.27084,-1.375 -0.26041,-0.55208 -0.72916,-0.86458 -0.46875,-0.32292 -1.13542,-0.4375 -0.66666,-0.125 -1.43749,-0.125 h -0.9375 v -1.72916 h 0.72916 q 1.58333,0 2.52083,-0.65625 0.94792,-0.66667 0.94792,-1.9375 0,-0.5625 -0.23958,-0.97917 -0.23959,-0.42708 -0.66667,-0.69791 -0.44792,-0.27083 -0.95833,-0.375 -0.51042,-0.10417 -1.15625,-0.10417 -0.98958,0 -2.10416,0.35417 -1.11459,0.35417 -2.10417,1 h -0.10416 v -2.17708 q 0.73958,-0.36459 1.96874,-0.66667 1.23958,-0.3125 2.39583,-0.3125 1.13542,0 2,0.20834 0.86458,0.20833 1.5625,0.66666 0.75,0.5 1.13541,1.20833 0.38542,0.70833 0.38542,1.65625 0,1.29166 -0.91667,2.26041 -0.90625,0.95833 -2.14583,1.20833 v 0.14584 q 0.5,0.0833 1.14583,0.35416 0.64584,0.26042 1.09375,0.65625 z"
           id="path22271" />
        <path
           d="m 612.5351,963.54761 h -2.19791 l -1.52083,-4.32291 h -6.70832 l -1.52083,4.32291 h -2.09375 l 5.64582,-15.51039 h 2.75 z m -4.35416,-6.09374 -2.71874,-7.61457 -2.72916,7.61457 z"
           id="path22273" />
      </g>
    </g>
    <g
       aria-label="Set
Colour"
       transform="matrix(0.26458333,0,0,0.26458333,-89.169402,-87.23473)"
       id="text5476-5"
       style="font-size:21.3333px;white-space:pre;stroke-width:0.377953">
      <g
         id="g25305"
         transform="translate(-25.33823,11.551747)">
        <path
           d="m 575.32162,932.45391 q 0,0.90625 -0.42708,1.79166 -0.41667,0.88542 -1.17708,1.5 -0.83333,0.66667 -1.94792,1.04166 -1.10416,0.375 -2.66666,0.375 -1.67708,0 -3.02083,-0.3125 -1.33333,-0.31249 -2.71874,-0.92708 v -2.58333 h 0.14583 q 1.17708,0.97917 2.71875,1.51042 1.54166,0.53125 2.89582,0.53125 1.91667,0 2.97917,-0.71875 1.07291,-0.71875 1.07291,-1.91667 0,-1.03124 -0.51041,-1.52083 -0.5,-0.48958 -1.53125,-0.76041 -0.78125,-0.20833 -1.69792,-0.34375 -0.90624,-0.13542 -1.92708,-0.34375 -2.06249,-0.4375 -3.06249,-1.48958 -0.98958,-1.0625 -0.98958,-2.76041 0,-1.94792 1.64583,-3.1875 1.64583,-1.25 4.17707,-1.25 1.63542,0 3,0.3125 1.36458,0.3125 2.41666,0.77083 v 2.4375 h -0.14583 q -0.88542,-0.75 -2.33333,-1.23958 -1.4375,-0.5 -2.94791,-0.5 -1.65625,0 -2.66666,0.6875 -1,0.6875 -1,1.77083 0,0.96875 0.5,1.52083 0.5,0.55208 1.76041,0.84375 0.66667,0.14583 1.89583,0.35417 1.22917,0.20833 2.08333,0.42708 1.72916,0.45833 2.60416,1.38541 0.875,0.92708 0.875,2.59375 z"
           id="path22224" />
        <path
           d="m 588.21743,931.26641 h -8.5729 q 0,1.07292 0.32292,1.875 0.32291,0.79166 0.88541,1.30208 0.54167,0.5 1.28125,0.75 0.75,0.25 1.64583,0.25 1.1875,0 2.38541,-0.46875 1.20834,-0.47917 1.71875,-0.9375 h 0.10417 v 2.13541 q -0.98958,0.41667 -2.02083,0.69792 -1.03125,0.28125 -2.16667,0.28125 -2.89582,0 -4.52082,-1.5625 -1.625,-1.57291 -1.625,-4.45833 0,-2.85416 1.55208,-4.53124 1.5625,-1.67708 4.10416,-1.67708 2.35417,0 3.625,1.375 1.28124,1.375 1.28124,3.90624 z m -1.90624,-1.5 q -0.0104,-1.54166 -0.78125,-2.38541 -0.76042,-0.84375 -2.32291,-0.84375 -1.57292,0 -2.51042,0.92708 -0.92708,0.92708 -1.05208,2.30208 z"
           id="path22226" />
        <path
           d="m 597.22784,936.77682 q -0.55209,0.14583 -1.20834,0.23958 -0.64583,0.0937 -1.15624,0.0937 -1.78125,0 -2.70833,-0.95833 -0.92708,-0.95833 -0.92708,-3.07291 v -6.18749 h -1.32292 v -1.64583 h 1.32292 v -3.34375 h 1.95833 v 3.34375 h 4.04166 v 1.64583 h -4.04166 v 5.30207 q 0,0.91667 0.0417,1.4375 0.0417,0.51042 0.29167,0.95833 0.22916,0.41667 0.625,0.61458 0.40625,0.1875 1.22916,0.1875 0.47917,0 1,-0.13541 0.52083,-0.14584 0.75,-0.23959 h 0.10417 z"
           id="path22228" />
      </g>
      <g
         id="g25313"
         transform="translate(38.500335,-15.156553)">
        <path
           d="m 559.25394,962.42261 q -0.57292,0.25 -1.04167,0.46875 -0.45833,0.21875 -1.20833,0.45833 -0.63541,0.19792 -1.38541,0.33334 -0.73958,0.14583 -1.63542,0.14583 -1.68749,0 -3.07291,-0.46875 -1.375,-0.47916 -2.39583,-1.48958 -1,-0.98958 -1.5625,-2.51041 -0.56249,-1.53125 -0.56249,-3.55208 0,-1.91666 0.54166,-3.42708 0.54167,-1.51041 1.5625,-2.55208 0.98958,-1.01041 2.38541,-1.54166 1.40625,-0.53125 3.11458,-0.53125 1.25,0 2.48958,0.30208 1.25,0.30208 2.77083,1.0625 v 2.44791 h -0.15625 q -1.28125,-1.07291 -2.54166,-1.56249 -1.26042,-0.48959 -2.69792,-0.48959 -1.17708,0 -2.12499,0.38542 -0.9375,0.375 -1.67708,1.17708 -0.71875,0.78125 -1.125,1.97916 -0.39583,1.1875 -0.39583,2.75 0,1.63541 0.43749,2.8125 0.44792,1.17708 1.14584,1.91666 0.72916,0.77083 1.69791,1.14583 0.97917,0.36458 2.0625,0.36458 1.48958,0 2.79166,-0.51041 1.30208,-0.51042 2.4375,-1.53125 h 0.14583 z"
           id="path22230" />
        <path
           d="m 571.931,957.73512 q 0,2.84375 -1.45833,4.48958 -1.45833,1.64583 -3.90624,1.64583 -2.46875,0 -3.92708,-1.64583 -1.44791,-1.64583 -1.44791,-4.48958 0,-2.84375 1.44791,-4.48958 1.45833,-1.65624 3.92708,-1.65624 2.44791,0 3.90624,1.65624 1.45833,1.64583 1.45833,4.48958 z m -2.02083,0 q 0,-2.26041 -0.88541,-3.35416 -0.88542,-1.10417 -2.45833,-1.10417 -1.59375,0 -2.47917,1.10417 -0.87499,1.09375 -0.87499,3.35416 0,2.1875 0.88541,3.32291 0.88542,1.125 2.46875,1.125 1.5625,0 2.44791,-1.11458 0.89583,-1.125 0.89583,-3.33333 z"
           id="path22232" />
        <path
           d="m 576.94141,963.54761 h -1.95833 V 947.3393 h 1.95833 z"
           id="path22234"
           style="stroke-width:0.377953;stroke-dasharray:none" />
        <path
           d="m 590.73306,957.73512 q 0,2.84375 -1.45833,4.48958 -1.45834,1.64583 -3.90625,1.64583 -2.46874,0 -3.92708,-1.64583 -1.44791,-1.64583 -1.44791,-4.48958 0,-2.84375 1.44791,-4.48958 1.45834,-1.65624 3.92708,-1.65624 2.44791,0 3.90625,1.65624 1.45833,1.64583 1.45833,4.48958 z m -2.02083,0 q 0,-2.26041 -0.88542,-3.35416 -0.88541,-1.10417 -2.45833,-1.10417 -1.59375,0 -2.47916,1.10417 -0.875,1.09375 -0.875,3.35416 0,2.1875 0.88542,3.32291 0.88541,1.125 2.46874,1.125 1.5625,0 2.44791,-1.11458 0.89584,-1.125 0.89584,-3.33333 z"
           id="path22236" />
        <path
           d="m 603.41012,963.54761 h -1.95833 v -1.29166 q -0.98958,0.78124 -1.89583,1.19791 -0.90625,0.41667 -2,0.41667 -1.83333,0 -2.85416,-1.11458 -1.02083,-1.125 -1.02083,-3.29167 v -7.55207 h 1.95833 v 6.62499 q 0,0.88542 0.0833,1.52083 0.0833,0.625 0.35417,1.07292 0.28125,0.45833 0.72916,0.66666 0.44792,0.20834 1.30208,0.20834 0.76042,0 1.65625,-0.39584 0.90625,-0.39583 1.6875,-1.01041 v -8.68749 h 1.95833 z"
           id="path22238" />
        <path
           d="m 614.52468,954.04763 h -0.10416 q -0.4375,-0.10417 -0.85417,-0.14584 -0.40625,-0.0521 -0.96875,-0.0521 -0.90625,0 -1.74999,0.40625 -0.84375,0.39583 -1.625,1.03125 v 8.2604 h -1.95833 v -11.6354 h 1.95833 v 1.71875 q 1.16666,-0.9375 2.05208,-1.32291 0.89583,-0.39584 1.82291,-0.39584 0.51042,0 0.73958,0.0312 0.22917,0.0208 0.6875,0.0937 z"
           id="path22240" />
      </g>
    </g>
  </g>
</svg>
