<?xml version="1.0" encoding="UTF-8" standalone="no"?>
<!-- Generator: Adobe Illustrator 26.3.1, SVG Export Plug-In . SVG Version: 6.00 Build 0)  -->

<svg
   version="1.1"
   id="Layer_1"
   x="0px"
   y="0px"
   viewBox="0 0 857.8385 1218.7792"
   xml:space="preserve"
   width="1143.7847"
   height="1625.0389"
   sodipodi:docname="WordClock_dividers_1.5mm_final.svg"
   inkscape:version="1.1 (c68e22c387, 2021-05-23)"
   xmlns:inkscape="http://www.inkscape.org/namespaces/inkscape"
   xmlns:sodipodi="http://sodipodi.sourceforge.net/DTD/sodipodi-0.dtd"
   xmlns="http://www.w3.org/2000/svg"
   xmlns:svg="http://www.w3.org/2000/svg"><sodipodi:namedview
   id="namedview29"
   pagecolor="#ffffff"
   bordercolor="#666666"
   borderopacity="1.0"
   inkscape:pageshadow="2"
   inkscape:pageopacity="0.0"
   inkscape:pagecheckerboard="0"
   showgrid="false"
   inkscape:document-units="in"
   inkscape:zoom="0.35355339"
   inkscape:cx="786.30274"
   inkscape:cy="864.08448"
   inkscape:window-width="1920"
   inkscape:window-height="1051"
   inkscape:window-x="-9"
   inkscape:window-y="-9"
   inkscape:window-maximized="1"
   inkscape:current-layer="Layer_1" /><defs
   id="defs55" />
<style
   type="text/css"
   id="style2">
	.st0{fill-opacity:0;stroke:#E30613;}
</style>


<polygon
   class="st0"
   points="536.95,126.74 541.2,126.74 541.2,105.48 583.72,105.48 583.72,105.54 583.72,126.74 587.97,126.74 587.97,105.48 630.49,105.48 630.49,126.74 634.75,126.74 634.75,105.48 660.26,105.48 660.26,126.74 684.7,126.74 684.7,105.48 700.24,105.48 700.24,148 48.28,148 48.28,105.48 64.98,105.48 64.98,126.74 89.42,126.74 89.42,105.48 116,105.48 116,126.74 120.25,126.74 120.25,105.54 120.25,105.48 162.77,105.48 162.77,126.74 167.03,126.74 167.03,105.48 209.55,105.48 209.55,126.74 213.8,126.74 213.8,105.48 256.32,105.48 256.32,105.54 256.32,126.74 260.57,126.74 260.57,105.48 303.09,105.48 303.09,126.74 307.34,126.74 307.34,105.48 349.86,105.48 349.86,126.74 354.11,126.74 354.11,105.54 354.11,105.48 396.63,105.48 396.63,126.74 400.89,126.74 400.89,105.48 443.41,105.48 443.41,126.74 447.66,126.74 447.66,105.54 447.66,105.48 490.18,105.48 490.18,105.54 490.18,126.74 494.43,126.74 494.43,105.48 536.95,105.48 "
   id="polygon8-0"
   transform="matrix(0.99848132,0,0,0.97701771,-10.716757,-68.211581)"
   style="fill-opacity:0;stroke:#e30613" /><polygon
   class="st0"
   points="209.55,126.74 213.8,126.74 213.8,105.48 256.32,105.48 256.32,105.54 256.32,126.74 260.57,126.74 260.57,105.48 303.09,105.48 303.09,126.74 307.34,126.74 307.34,105.48 349.86,105.48 349.86,126.74 354.11,126.74 354.11,105.54 354.11,105.48 396.63,105.48 396.63,126.74 400.89,126.74 400.89,105.48 443.41,105.48 443.41,126.74 447.66,126.74 447.66,105.54 447.66,105.48 490.18,105.48 490.18,105.54 490.18,126.74 494.43,126.74 494.43,105.48 536.95,105.48 536.95,126.74 541.2,126.74 541.2,105.48 583.72,105.48 583.72,105.54 583.72,126.74 587.97,126.74 587.97,105.48 630.49,105.48 630.49,126.74 634.75,126.74 634.75,105.48 660.26,105.48 660.26,126.74 684.7,126.74 684.7,105.48 700.24,105.48 700.24,148 48.28,148 48.28,105.48 64.98,105.48 64.98,126.74 89.42,126.74 89.42,105.48 116,105.48 116,126.74 120.25,126.74 120.25,105.54 120.25,105.48 162.77,105.48 162.77,126.74 167.03,126.74 167.03,105.48 209.55,105.48 "
   id="polygon8-0-4"
   transform="matrix(0.99848132,0,0,0.97701771,-10.716757,-8.3489174)"
   style="fill-opacity:0;stroke:#e30613" />












<polygon
   class="st0"
   points="579.77,303.15 575.52,303.15 575.52,281.89 533,281.89 533,303.15 528.75,303.15 528.75,281.89 486.23,281.89 486.23,303.15 481.98,303.15 481.98,281.89 439.46,281.89 439.46,303.15 435.2,303.15 435.2,281.89 392.68,281.89 392.68,303.15 388.43,303.15 388.43,281.89 345.91,281.89 345.91,303.15 341.66,303.15 341.66,281.89 299.14,281.89 299.14,303.15 294.89,303.15 294.89,281.89 252.37,281.89 252.37,303.15 248.12,303.15 248.12,281.89 205.6,281.89 205.6,303.15 201.35,303.15 201.35,281.89 158.83,281.89 158.83,303.15 154.57,303.15 154.57,281.89 112.05,281.89 112.06,303.15 107.8,303.15 107.8,281.89 65.28,281.89 65.28,303.15 61.03,303.15 61.03,281.89 48.28,281.89 48.28,324.41 592.53,324.41 592.53,281.89 579.77,281.89 "
   id="polygon34"
   transform="matrix(0.99816933,0,0,0.97701771,-10.70185,-1.1166128)" /><polygon
   class="st0"
   points="481.98,281.89 439.46,281.89 439.46,303.15 435.2,303.15 435.2,281.89 392.68,281.89 392.68,303.15 388.43,303.15 388.43,281.89 345.91,281.89 345.91,303.15 341.66,303.15 341.66,281.89 299.14,281.89 299.14,303.15 294.89,303.15 294.89,281.89 252.37,281.89 252.37,303.15 248.12,303.15 248.12,281.89 205.6,281.89 205.6,303.15 201.35,303.15 201.35,281.89 158.83,281.89 158.83,303.15 154.57,303.15 154.57,281.89 112.05,281.89 112.06,303.15 107.8,303.15 107.8,281.89 65.28,281.89 65.28,303.15 61.03,303.15 61.03,281.89 48.28,281.89 48.28,324.41 592.53,324.41 592.53,281.89 579.77,281.89 579.77,303.15 575.52,303.15 575.52,281.89 533,281.89 533,303.15 528.75,303.15 528.75,281.89 486.23,281.89 486.23,303.15 481.98,303.15 "
   id="polygon34-8"
   transform="matrix(0,0.99816933,-0.97701771,0,784.69553,551.96124)"
   style="fill-opacity:0;stroke:#e30613" /><polygon
   class="st0"
   points="486.23,303.15 481.98,303.15 481.98,281.89 439.46,281.89 439.46,303.15 435.2,303.15 435.2,281.89 392.68,281.89 392.68,303.15 388.43,303.15 388.43,281.89 345.91,281.89 345.91,303.15 341.66,303.15 341.66,281.89 299.14,281.89 299.14,303.15 294.89,303.15 294.89,281.89 252.37,281.89 252.37,303.15 248.12,303.15 248.12,281.89 205.6,281.89 205.6,303.15 201.35,303.15 201.35,281.89 158.83,281.89 158.83,303.15 154.57,303.15 154.57,281.89 112.05,281.89 112.06,303.15 107.8,303.15 107.8,281.89 65.28,281.89 65.28,303.15 61.03,303.15 61.03,281.89 48.28,281.89 48.28,324.41 592.53,324.41 592.53,281.89 579.77,281.89 579.77,303.15 575.52,303.15 575.52,281.89 533,281.89 533,303.15 528.75,303.15 528.75,281.89 486.23,281.89 "
   id="polygon34-9"
   transform="matrix(0.99816933,0,0,0.97701771,-10.70185,58.746066)"
   style="fill-opacity:0;stroke:#e30613" /><polygon
   class="st0"
   points="392.68,281.89 392.68,303.15 388.43,303.15 388.43,281.89 345.91,281.89 345.91,303.15 341.66,303.15 341.66,281.89 299.14,281.89 299.14,303.15 294.89,303.15 294.89,281.89 252.37,281.89 252.37,303.15 248.12,303.15 248.12,281.89 205.6,281.89 205.6,303.15 201.35,303.15 201.35,281.89 158.83,281.89 158.83,303.15 154.57,303.15 154.57,281.89 112.05,281.89 112.06,303.15 107.8,303.15 107.8,281.89 65.28,281.89 65.28,303.15 61.03,303.15 61.03,281.89 48.28,281.89 48.28,324.41 592.53,324.41 592.53,281.89 579.77,281.89 579.77,303.15 575.52,303.15 575.52,281.89 533,281.89 533,303.15 528.75,303.15 528.75,281.89 486.23,281.89 486.23,303.15 481.98,303.15 481.98,281.89 439.46,281.89 439.46,303.15 435.2,303.15 435.2,281.89 "
   id="polygon34-8-0"
   transform="matrix(0,0.99816933,-0.97701771,0,722.83524,551.96124)"
   style="fill-opacity:0;stroke:#e30613" /><polygon
   class="st0"
   points="486.23,303.15 481.98,303.15 481.98,281.89 439.46,281.89 439.46,303.15 435.2,303.15 435.2,281.89 392.68,281.89 392.68,303.15 388.43,303.15 388.43,281.89 345.91,281.89 345.91,303.15 341.66,303.15 341.66,281.89 299.14,281.89 299.14,303.15 294.89,303.15 294.89,281.89 252.37,281.89 252.37,303.15 248.12,303.15 248.12,281.89 205.6,281.89 205.6,303.15 201.35,303.15 201.35,281.89 158.83,281.89 158.83,303.15 154.57,303.15 154.57,281.89 112.05,281.89 112.06,303.15 107.8,303.15 107.8,281.89 65.28,281.89 65.28,303.15 61.03,303.15 61.03,281.89 48.28,281.89 48.28,324.41 592.53,324.41 592.53,281.89 579.77,281.89 579.77,303.15 575.52,303.15 575.52,281.89 533,281.89 533,303.15 528.75,303.15 528.75,281.89 486.23,281.89 "
   id="polygon34-2"
   transform="matrix(0.99816933,0,0,0.97701771,-10.70185,118.60869)"
   style="fill-opacity:0;stroke:#e30613" /><polygon
   class="st0"
   points="392.68,281.89 392.68,303.15 388.43,303.15 388.43,281.89 345.91,281.89 345.91,303.15 341.66,303.15 341.66,281.89 299.14,281.89 299.14,303.15 294.89,303.15 294.89,281.89 252.37,281.89 252.37,303.15 248.12,303.15 248.12,281.89 205.6,281.89 205.6,303.15 201.35,303.15 201.35,281.89 158.83,281.89 158.83,303.15 154.57,303.15 154.57,281.89 112.05,281.89 112.06,303.15 107.8,303.15 107.8,281.89 65.28,281.89 65.28,303.15 61.03,303.15 61.03,281.89 48.28,281.89 48.28,324.41 592.53,324.41 592.53,281.89 579.77,281.89 579.77,303.15 575.52,303.15 575.52,281.89 533,281.89 533,303.15 528.75,303.15 528.75,281.89 486.23,281.89 486.23,303.15 481.98,303.15 481.98,281.89 439.46,281.89 439.46,303.15 435.2,303.15 435.2,281.89 "
   id="polygon34-8-4"
   transform="matrix(0,0.99816933,-0.97701771,0,660.97492,551.96124)"
   style="fill-opacity:0;stroke:#e30613" /><polygon
   class="st0"
   points="486.23,303.15 481.98,303.15 481.98,281.89 439.46,281.89 439.46,303.15 435.2,303.15 435.2,281.89 392.68,281.89 392.68,303.15 388.43,303.15 388.43,281.89 345.91,281.89 345.91,303.15 341.66,303.15 341.66,281.89 299.14,281.89 299.14,303.15 294.89,303.15 294.89,281.89 252.37,281.89 252.37,303.15 248.12,303.15 248.12,281.89 205.6,281.89 205.6,303.15 201.35,303.15 201.35,281.89 158.83,281.89 158.83,303.15 154.57,303.15 154.57,281.89 112.05,281.89 112.06,303.15 107.8,303.15 107.8,281.89 65.28,281.89 65.28,303.15 61.03,303.15 61.03,281.89 48.28,281.89 48.28,324.41 592.53,324.41 592.53,281.89 579.77,281.89 579.77,303.15 575.52,303.15 575.52,281.89 533,281.89 533,303.15 528.75,303.15 528.75,281.89 486.23,281.89 "
   id="polygon34-6"
   transform="matrix(0.99816933,0,0,0.97701771,-10.70185,178.47137)"
   style="fill-opacity:0;stroke:#e30613" /><polygon
   class="st0"
   points="392.68,281.89 392.68,303.15 388.43,303.15 388.43,281.89 345.91,281.89 345.91,303.15 341.66,303.15 341.66,281.89 299.14,281.89 299.14,303.15 294.89,303.15 294.89,281.89 252.37,281.89 252.37,303.15 248.12,303.15 248.12,281.89 205.6,281.89 205.6,303.15 201.35,303.15 201.35,281.89 158.83,281.89 158.83,303.15 154.57,303.15 154.57,281.89 112.05,281.89 112.06,303.15 107.8,303.15 107.8,281.89 65.28,281.89 65.28,303.15 61.03,303.15 61.03,281.89 48.28,281.89 48.28,324.41 592.53,324.41 592.53,281.89 579.77,281.89 579.77,303.15 575.52,303.15 575.52,281.89 533,281.89 533,303.15 528.75,303.15 528.75,281.89 486.23,281.89 486.23,303.15 481.98,303.15 481.98,281.89 439.46,281.89 439.46,303.15 435.2,303.15 435.2,281.89 "
   id="polygon34-8-40"
   transform="matrix(0,0.99816933,-0.97701771,0,599.11461,551.96124)"
   style="fill-opacity:0;stroke:#e30613" /><polygon
   class="st0"
   points="486.23,281.89 486.23,303.15 481.98,303.15 481.98,281.89 439.46,281.89 439.46,303.15 435.2,303.15 435.2,281.89 392.68,281.89 392.68,303.15 388.43,303.15 388.43,281.89 345.91,281.89 345.91,303.15 341.66,303.15 341.66,281.89 299.14,281.89 299.14,303.15 294.89,303.15 294.89,281.89 252.37,281.89 252.37,303.15 248.12,303.15 248.12,281.89 205.6,281.89 205.6,303.15 201.35,303.15 201.35,281.89 158.83,281.89 158.83,303.15 154.57,303.15 154.57,281.89 112.05,281.89 112.06,303.15 107.8,303.15 107.8,281.89 65.28,281.89 65.28,303.15 61.03,303.15 61.03,281.89 48.28,281.89 48.28,324.41 592.53,324.41 592.53,281.89 579.77,281.89 579.77,303.15 575.52,303.15 575.52,281.89 533,281.89 533,303.15 528.75,303.15 528.75,281.89 "
   id="polygon34-3"
   transform="matrix(0.99816933,0,0,0.97701771,-10.70185,238.33403)"
   style="fill-opacity:0;stroke:#e30613" /><polygon
   class="st0"
   points="392.68,281.89 392.68,303.15 388.43,303.15 388.43,281.89 345.91,281.89 345.91,303.15 341.66,303.15 341.66,281.89 299.14,281.89 299.14,303.15 294.89,303.15 294.89,281.89 252.37,281.89 252.37,303.15 248.12,303.15 248.12,281.89 205.6,281.89 205.6,303.15 201.35,303.15 201.35,281.89 158.83,281.89 158.83,303.15 154.57,303.15 154.57,281.89 112.05,281.89 112.06,303.15 107.8,303.15 107.8,281.89 65.28,281.89 65.28,303.15 61.03,303.15 61.03,281.89 48.28,281.89 48.28,324.41 592.53,324.41 592.53,281.89 579.77,281.89 579.77,303.15 575.52,303.15 575.52,281.89 533,281.89 533,303.15 528.75,303.15 528.75,281.89 486.23,281.89 486.23,303.15 481.98,303.15 481.98,281.89 439.46,281.89 439.46,303.15 435.2,303.15 435.2,281.89 "
   id="polygon34-8-5"
   transform="matrix(0,0.99816933,-0.97701771,0,537.25431,551.96124)"
   style="fill-opacity:0;stroke:#e30613" /><polygon
   class="st0"
   points="252.37,281.89 252.37,303.15 248.12,303.15 248.12,281.89 205.6,281.89 205.6,303.15 201.35,303.15 201.35,281.89 158.83,281.89 158.83,303.15 154.57,303.15 154.57,281.89 112.05,281.89 112.06,303.15 107.8,303.15 107.8,281.89 65.28,281.89 65.28,303.15 61.03,303.15 61.03,281.89 48.28,281.89 48.28,324.41 592.53,324.41 592.53,281.89 579.77,281.89 579.77,303.15 575.52,303.15 575.52,281.89 533,281.89 533,303.15 528.75,303.15 528.75,281.89 486.23,281.89 486.23,303.15 481.98,303.15 481.98,281.89 439.46,281.89 439.46,303.15 435.2,303.15 435.2,281.89 392.68,281.89 392.68,303.15 388.43,303.15 388.43,281.89 345.91,281.89 345.91,303.15 341.66,303.15 341.66,281.89 299.14,281.89 299.14,303.15 294.89,303.15 294.89,281.89 "
   id="polygon34-7"
   transform="matrix(0,0.99816933,-0.97701771,0,1093.997,553.90629)"
   style="fill-opacity:0;stroke:#e30613" /><polygon
   class="st0"
   points="392.68,281.89 392.68,303.15 388.43,303.15 388.43,281.89 345.91,281.89 345.91,303.15 341.66,303.15 341.66,281.89 299.14,281.89 299.14,303.15 294.89,303.15 294.89,281.89 252.37,281.89 252.37,303.15 248.12,303.15 248.12,281.89 205.6,281.89 205.6,303.15 201.35,303.15 201.35,281.89 158.83,281.89 158.83,303.15 154.57,303.15 154.57,281.89 112.05,281.89 112.06,303.15 107.8,303.15 107.8,281.89 65.28,281.89 65.28,303.15 61.03,303.15 61.03,281.89 48.28,281.89 48.28,324.41 592.53,324.41 592.53,281.89 579.77,281.89 579.77,303.15 575.52,303.15 575.52,281.89 533,281.89 533,303.15 528.75,303.15 528.75,281.89 486.23,281.89 486.23,303.15 481.98,303.15 481.98,281.89 439.46,281.89 439.46,303.15 435.2,303.15 435.2,281.89 "
   id="polygon34-8-49"
   transform="matrix(0,0.99816933,-0.97701771,0,475.39404,551.96124)"
   style="fill-opacity:0;stroke:#e30613" /><polygon
   class="st0"
   points="481.98,281.89 439.46,281.89 439.46,303.15 435.2,303.15 435.2,281.89 392.68,281.89 392.68,303.15 388.43,303.15 388.43,281.89 345.91,281.89 345.91,303.15 341.66,303.15 341.66,281.89 299.14,281.89 299.14,303.15 294.89,303.15 294.89,281.89 252.37,281.89 252.37,303.15 248.12,303.15 248.12,281.89 205.6,281.89 205.6,303.15 201.35,303.15 201.35,281.89 158.83,281.89 158.83,303.15 154.57,303.15 154.57,281.89 112.05,281.89 112.06,303.15 107.8,303.15 107.8,281.89 65.28,281.89 65.28,303.15 61.03,303.15 61.03,281.89 48.28,281.89 48.28,324.41 592.53,324.41 592.53,281.89 579.77,281.89 579.77,303.15 575.52,303.15 575.52,281.89 533,281.89 533,303.15 528.75,303.15 528.75,281.89 486.23,281.89 486.23,303.15 481.98,303.15 "
   id="polygon34-4"
   transform="matrix(0,0.99816933,-0.97701771,0,1032.1368,551.96124)"
   style="fill-opacity:0;stroke:#e30613" /><polygon
   class="st0"
   points="392.68,281.89 392.68,303.15 388.43,303.15 388.43,281.89 345.91,281.89 345.91,303.15 341.66,303.15 341.66,281.89 299.14,281.89 299.14,303.15 294.89,303.15 294.89,281.89 252.37,281.89 252.37,303.15 248.12,303.15 248.12,281.89 205.6,281.89 205.6,303.15 201.35,303.15 201.35,281.89 158.83,281.89 158.83,303.15 154.57,303.15 154.57,281.89 112.05,281.89 112.06,303.15 107.8,303.15 107.8,281.89 65.28,281.89 65.28,303.15 61.03,303.15 61.03,281.89 48.28,281.89 48.28,324.41 592.53,324.41 592.53,281.89 579.77,281.89 579.77,303.15 575.52,303.15 575.52,281.89 533,281.89 533,303.15 528.75,303.15 528.75,281.89 486.23,281.89 486.23,303.15 481.98,303.15 481.98,281.89 439.46,281.89 439.46,303.15 435.2,303.15 435.2,281.89 "
   id="polygon34-8-41"
   transform="matrix(0,0.99816933,-0.97701771,0,413.53372,551.96124)"
   style="fill-opacity:0;stroke:#e30613" /><polygon
   class="st0"
   points="481.98,281.89 439.46,281.89 439.46,303.15 435.2,303.15 435.2,281.89 392.68,281.89 392.68,303.15 388.43,303.15 388.43,281.89 345.91,281.89 345.91,303.15 341.66,303.15 341.66,281.89 299.14,281.89 299.14,303.15 294.89,303.15 294.89,281.89 252.37,281.89 252.37,303.15 248.12,303.15 248.12,281.89 205.6,281.89 205.6,303.15 201.35,303.15 201.35,281.89 158.83,281.89 158.83,303.15 154.57,303.15 154.57,281.89 112.05,281.89 112.06,303.15 107.8,303.15 107.8,281.89 65.28,281.89 65.28,303.15 61.03,303.15 61.03,281.89 48.28,281.89 48.28,324.41 592.53,324.41 592.53,281.89 579.77,281.89 579.77,303.15 575.52,303.15 575.52,281.89 533,281.89 533,303.15 528.75,303.15 528.75,281.89 486.23,281.89 486.23,303.15 481.98,303.15 "
   id="polygon34-76"
   transform="matrix(0,0.99816933,-0.97701771,0,970.27647,551.96124)"
   style="fill-opacity:0;stroke:#e30613" /><polygon
   class="st0"
   points="435.2,281.89 392.68,281.89 392.68,303.15 388.43,303.15 388.43,281.89 345.91,281.89 345.91,303.15 341.66,303.15 341.66,281.89 299.14,281.89 299.14,303.15 294.89,303.15 294.89,281.89 252.37,281.89 252.37,303.15 248.12,303.15 248.12,281.89 205.6,281.89 205.6,303.15 201.35,303.15 201.35,281.89 158.83,281.89 158.83,303.15 154.57,303.15 154.57,281.89 112.05,281.89 112.06,303.15 107.8,303.15 107.8,281.89 65.28,281.89 65.28,303.15 61.03,303.15 61.03,281.89 48.28,281.89 48.28,324.41 592.53,324.41 592.53,281.89 579.77,281.89 579.77,303.15 575.52,303.15 575.52,281.89 533,281.89 533,303.15 528.75,303.15 528.75,281.89 486.23,281.89 486.23,303.15 481.98,303.15 481.98,281.89 439.46,281.89 439.46,303.15 435.2,303.15 "
   id="polygon34-8-6"
   transform="matrix(0,0.99816933,-0.97701771,0,351.67343,551.96124)"
   style="fill-opacity:0;stroke:#e30613" /><polygon
   class="st0"
   points="481.98,281.89 439.46,281.89 439.46,303.15 435.2,303.15 435.2,281.89 392.68,281.89 392.68,303.15 388.43,303.15 388.43,281.89 345.91,281.89 345.91,303.15 341.66,303.15 341.66,281.89 299.14,281.89 299.14,303.15 294.89,303.15 294.89,281.89 252.37,281.89 252.37,303.15 248.12,303.15 248.12,281.89 205.6,281.89 205.6,303.15 201.35,303.15 201.35,281.89 158.83,281.89 158.83,303.15 154.57,303.15 154.57,281.89 112.05,281.89 112.06,303.15 107.8,303.15 107.8,281.89 65.28,281.89 65.28,303.15 61.03,303.15 61.03,281.89 48.28,281.89 48.28,324.41 592.53,324.41 592.53,281.89 579.77,281.89 579.77,303.15 575.52,303.15 575.52,281.89 533,281.89 533,303.15 528.75,303.15 528.75,281.89 486.23,281.89 486.23,303.15 481.98,303.15 "
   id="polygon34-24"
   transform="matrix(0,0.99816933,-0.97701771,0,908.41617,551.96124)"
   style="fill-opacity:0;stroke:#e30613" /><polygon
   class="st0"
   points="205.6,281.89 205.6,303.15 201.35,303.15 201.35,281.89 158.83,281.89 158.83,303.15 154.57,303.15 154.57,281.89 112.05,281.89 112.06,303.15 107.8,303.15 107.8,281.89 65.28,281.89 65.28,303.15 61.03,303.15 61.03,281.89 48.28,281.89 48.28,324.41 592.53,324.41 592.53,281.89 579.77,281.89 579.77,303.15 575.52,303.15 575.52,281.89 533,281.89 533,303.15 528.75,303.15 528.75,281.89 486.23,281.89 486.23,303.15 481.98,303.15 481.98,281.89 439.46,281.89 439.46,303.15 435.2,303.15 435.2,281.89 392.68,281.89 392.68,303.15 388.43,303.15 388.43,281.89 345.91,281.89 345.91,303.15 341.66,303.15 341.66,281.89 299.14,281.89 299.14,303.15 294.89,303.15 294.89,281.89 252.37,281.89 252.37,303.15 248.12,303.15 248.12,281.89 "
   id="polygon34-8-47"
   transform="matrix(0,0.99816933,-0.97701771,0,1031.4543,-13.347368)"
   style="fill-opacity:0;stroke:#e30613" /><polygon
   class="st0"
   points="439.46,281.89 439.46,303.15 435.2,303.15 435.2,281.89 392.68,281.89 392.68,303.15 388.43,303.15 388.43,281.89 345.91,281.89 345.91,303.15 341.66,303.15 341.66,281.89 299.14,281.89 299.14,303.15 294.89,303.15 294.89,281.89 252.37,281.89 252.37,303.15 248.12,303.15 248.12,281.89 205.6,281.89 205.6,303.15 201.35,303.15 201.35,281.89 158.83,281.89 158.83,303.15 154.57,303.15 154.57,281.89 112.05,281.89 112.06,303.15 107.8,303.15 107.8,281.89 65.28,281.89 65.28,303.15 61.03,303.15 61.03,281.89 48.28,281.89 48.28,324.41 592.53,324.41 592.53,281.89 579.77,281.89 579.77,303.15 575.52,303.15 575.52,281.89 533,281.89 533,303.15 528.75,303.15 528.75,281.89 486.23,281.89 486.23,303.15 481.98,303.15 481.98,281.89 "
   id="polygon34-0"
   transform="matrix(0,0.99816933,-0.97701771,0,846.55586,551.96124)"
   style="fill-opacity:0;stroke:#e30613" /><polygon
   class="st0"
   points="248.12,303.15 248.12,281.89 205.6,281.89 205.6,303.15 201.35,303.15 201.35,281.89 158.83,281.89 158.83,303.15 154.57,303.15 154.57,281.89 112.05,281.89 112.06,303.15 107.8,303.15 107.8,281.89 65.28,281.89 65.28,303.15 61.03,303.15 61.03,281.89 48.28,281.89 48.28,324.41 592.53,324.41 592.53,281.89 579.77,281.89 579.77,303.15 575.52,303.15 575.52,281.89 533,281.89 533,303.15 528.75,303.15 528.75,281.89 486.23,281.89 486.23,303.15 481.98,303.15 481.98,281.89 439.46,281.89 439.46,303.15 435.2,303.15 435.2,281.89 392.68,281.89 392.68,303.15 388.43,303.15 388.43,281.89 345.91,281.89 345.91,303.15 341.66,303.15 341.66,281.89 299.14,281.89 299.14,303.15 294.89,303.15 294.89,281.89 252.37,281.89 252.37,303.15 "
   id="polygon34-8-60"
   transform="matrix(0,0.99816933,-0.97701771,0,1093.9971,-13.347368)"
   style="fill-opacity:0;stroke:#e30613" />







<polygon
   class="st0"
   points="349.86,244.28 349.86,223.09 307.34,223.09 307.34,244.28 303.09,244.28 303.09,223.09 260.57,223.09 260.57,244.28 256.32,244.28 256.32,223.09 213.8,223.09 213.8,244.28 209.55,244.28 209.55,223.09 167.03,223.09 167.03,244.28 162.77,244.28 162.77,223.09 120.25,223.09 120.25,244.28 116,244.28 116,223.09 48.28,223.09 48.28,265.61 64.98,265.6 64.98,244.34 89.42,244.34 89.42,265.6 660.26,265.6 660.26,244.34 684.7,244.34 684.7,265.6 700.24,265.61 700.24,223.09 634.75,223.09 634.75,244.28 630.5,244.28 630.5,223.09 587.98,223.09 587.98,244.28 583.72,244.28 583.72,223.09 541.2,223.09 541.2,244.28 536.95,244.28 536.95,223.09 494.43,223.09 494.43,244.28 490.18,244.28 490.18,223.09 447.66,223.09 447.66,244.28 443.41,244.28 443.41,223.09 400.89,223.09 400.89,244.28 396.63,244.28 396.63,223.09 354.11,223.09 354.11,244.28 "
   id="polygon50"
   transform="matrix(0.99848132,0,0,0.97701048,-10.716757,-3.5290298)" /><polygon
   class="st0"
   points="209.55,244.28 209.55,223.09 167.03,223.09 167.03,244.28 162.77,244.28 162.77,223.09 120.25,223.09 120.25,244.28 116,244.28 116,223.09 48.28,223.09 48.28,265.61 64.98,265.6 64.98,244.34 89.42,244.34 89.42,265.6 660.26,265.6 660.26,244.34 684.7,244.34 684.7,265.6 700.24,265.61 700.24,223.09 634.75,223.09 634.75,244.28 630.5,244.28 630.5,223.09 587.98,223.09 587.98,244.28 583.72,244.28 583.72,223.09 541.2,223.09 541.2,244.28 536.95,244.28 536.95,223.09 494.43,223.09 494.43,244.28 490.18,244.28 490.18,223.09 447.66,223.09 447.66,244.28 443.41,244.28 443.41,223.09 400.89,223.09 400.89,244.28 396.63,244.28 396.63,223.09 354.11,223.09 354.11,244.28 349.86,244.28 349.86,223.09 307.34,223.09 307.34,244.28 303.09,244.28 303.09,223.09 260.57,223.09 260.57,244.28 256.32,244.28 256.32,223.09 213.8,223.09 213.8,244.28 "
   id="polygon50-8"
   transform="matrix(0.99848132,0,0,0.97701048,-10.716757,-63.391701)"
   style="fill-opacity:0;stroke:#e30613" />
</svg>
