<?xml version="1.0" encoding="UTF-8" standalone="no"?>
<svg
   version="1.1"
   x="0"
   y="0"
   width="970.62531"
   height="970.62402"
   viewBox="0 0 727.96898 727.96802"
   id="svg1522"
   sodipodi:docname="WordClock_LED_template_final.svg"
   inkscape:version="1.1 (c68e22c387, 2021-05-23)"
   xmlns:inkscape="http://www.inkscape.org/namespaces/inkscape"
   xmlns:sodipodi="http://sodipodi.sourceforge.net/DTD/sodipodi-0.dtd"
   xmlns="http://www.w3.org/2000/svg"
   xmlns:svg="http://www.w3.org/2000/svg">
  <defs
     id="defs1526" />
  <sodipodi:namedview
     id="namedview1524"
     pagecolor="#ffffff"
     bordercolor="#666666"
     borderopacity="1.0"
     inkscape:pageshadow="2"
     inkscape:pageopacity="0.0"
     inkscape:pagecheckerboard="0"
     showgrid="false"
     inkscape:document-units="in"
     fit-margin-left="50"
     lock-margins="true"
     fit-margin-top="50"
     fit-margin-right="50"
     fit-margin-bottom="50"
     inkscape:zoom="0.25341195"
     inkscape:cx="599.81385"
     inkscape:cy="976.67058"
     inkscape:window-width="1920"
     inkscape:window-height="1051"
     inkscape:window-x="-9"
     inkscape:window-y="-9"
     inkscape:window-maximized="1"
     inkscape:current-layer="svg1522" />
  <g
     id="Layer_1"
     transform="matrix(0.99846777,0,0,0.99847,-72.165422,-56.130224)">
    <path
       d="M 720.48,94.774 V 137 h 42.323 v 567.48 h -41.99 v 42.262 H 475.18 v -47.64 h -85.04 v 47.64 H 152.5 V 704.48 H 110.834 V 672 H 152.5 V 629.48 H 110.834 V 513.911 h 27.493 V 327.219 H 110.834 V 138 H 152.5 l 0.035,-43.207 z m -88.071,552.695 h -15.59 v 15.591 h 15.59 z m -93.543,0 h -15.591 v 15.591 h 15.591 z m -94.874,0 h -15.59 v 15.591 h 15.59 z m -93.63,0 h -15.591 v 15.591 h 15.591 z m -93.48,0 h -15.591 v 15.591 h 15.591 z m -46.835,0 h -15.591 v 15.591 h 15.591 z m 93.543,0 H 288 v 15.591 h 15.59 z m 93.543,0 h -15.59 v 15.591 h 15.59 z m 94.961,0 h -15.59 v 15.591 h 15.59 z m 93.543,0 h -15.59 v 15.591 h 15.59 z m 93.544,0 H 663.59 v 15.591 h 15.591 z m 0,-47.011 H 663.59 v 15.591 h 15.591 z m -93.544,0 h -15.59 v 15.591 h 15.59 z m -93.543,0 h -15.59 v 15.591 h 15.59 z m -94.961,0 h -15.59 v 15.591 h 15.59 z m -93.543,0 H 288 v 15.591 h 15.59 z m -93.543,0 h -15.591 v 15.591 h 15.591 z m 46.835,0 h -15.591 v 15.591 h 15.591 z m 93.48,0 h -15.591 v 15.591 h 15.591 z m 93.63,0 h -15.59 v 15.591 h 15.59 z m 94.874,0 h -15.591 v 15.591 h 15.591 z m 93.543,0 h -15.59 v 15.591 h 15.59 z m 0,-46.889 h -15.59 v 15.591 h 15.59 z m -93.543,0 h -15.591 v 15.591 h 15.591 z m -94.874,0 h -15.59 v 15.591 h 15.59 z m -93.63,0 h -15.591 v 15.591 h 15.591 z m -93.48,0 h -15.591 v 15.591 h 15.591 z m -46.835,0 h -15.591 v 15.591 h 15.591 z m 93.543,0 H 288 v 15.591 h 15.59 z m 93.543,0 h -15.59 v 15.591 h 15.59 z m 94.961,0 h -15.59 v 15.591 h 15.59 z m 93.543,0 h -15.59 v 15.591 h 15.59 z m 93.544,0 H 663.59 v 15.591 h 15.591 z m 0,-46.889 H 663.59 v 15.591 h 15.591 z m -93.544,0 h -15.59 v 15.591 h 15.59 z m -93.543,0 h -15.59 v 15.591 h 15.59 z m -94.961,0 h -15.59 v 15.591 h 15.59 z m -93.543,0 H 288 v 15.591 h 15.59 z m -93.543,0 h -15.59 v 15.591 h 15.59 z m 46.835,0 h -15.591 v 15.591 h 15.591 z m 93.48,0 h -15.591 v 15.591 h 15.591 z m 93.63,0 h -15.59 v 15.591 h 15.59 z m 94.874,0 h -15.591 v 15.591 h 15.591 z m 93.543,0 h -15.59 v 15.591 h 15.59 z m 0,-46.889 h -15.59 v 15.591 h 15.59 z m -93.543,0 h -15.591 v 15.591 h 15.591 z m -94.874,0 h -15.59 v 15.591 h 15.59 z m -93.63,0 h -15.591 v 15.591 h 15.591 z m -93.48,0 h -15.591 v 15.591 h 15.591 z m -46.835,0 h -15.59 v 15.591 h 15.59 z m 93.543,0 H 288 v 15.591 h 15.59 z m 93.543,0 h -15.59 v 15.591 h 15.59 z m 94.961,0 h -15.59 v 15.591 h 15.59 z m 93.543,0 h -15.59 v 15.591 h 15.59 z m 93.544,0 H 663.59 v 15.591 h 15.591 z m 0,-46.889 H 663.59 v 15.591 h 15.591 z m -93.544,0 h -15.59 v 15.591 h 15.59 z m -93.543,0 h -15.59 v 15.591 h 15.59 z m -94.961,0 h -15.59 v 15.591 h 15.59 z m -93.543,0 H 288 v 15.591 h 15.59 z m -93.543,0 h -15.59 v 15.591 h 15.59 z m 46.835,0 h -15.591 v 15.591 h 15.591 z m 93.48,0 h -15.591 v 15.591 h 15.591 z m 93.63,0 h -15.59 v 15.591 h 15.59 z m 94.874,0 h -15.591 v 15.591 h 15.591 z m 93.543,0 h -15.59 v 15.591 h 15.59 z m 46.772,-46.889 H 663.59 v 15.591 h 15.591 z m -93.544,0 h -15.59 v 15.591 h 15.59 z m -93.543,0 h -15.59 v 15.591 h 15.59 z m -94.961,0 h -15.59 v 15.591 h 15.59 z m -93.543,0 H 288 v 15.591 h 15.59 z m -93.543,0 h -15.59 v 15.591 h 15.59 z m 46.835,0 h -15.591 v 15.591 h 15.591 z m 93.48,0 h -15.591 v 15.591 h 15.591 z m 93.63,0 h -15.59 v 15.591 h 15.59 z m 94.874,0 h -15.591 v 15.591 h 15.591 z m 93.543,0 h -15.59 v 15.591 h 15.59 z m 0,-46.889 h -15.59 v 15.591 h 15.59 z m -93.543,0 h -15.591 v 15.591 h 15.591 z m -94.874,0 h -15.59 v 15.591 h 15.59 z m -93.63,0 h -15.591 v 15.591 h 15.591 z m -93.48,0 h -15.591 v 15.591 h 15.591 z m -46.835,0 h -15.59 v 15.591 h 15.59 z m 93.543,0 H 288 v 15.591 h 15.59 z m 93.543,0 h -15.59 v 15.591 h 15.59 z m 94.961,0 h -15.59 v 15.591 h 15.59 z m 93.543,0 h -15.59 v 15.591 h 15.59 z m 93.544,0 H 663.59 v 15.591 h 15.591 z m 0,-46.889 H 663.59 v 15.59 h 15.591 z m -93.544,0 h -15.59 v 15.59 h 15.59 z m -93.543,0 h -15.59 v 15.59 h 15.59 z m -94.961,0 h -15.59 v 15.59 h 15.59 z m -93.543,0 H 288 v 15.59 h 15.59 z m -93.543,0 h -15.59 v 15.59 h 15.59 z m 46.835,0 h -15.591 v 15.59 h 15.591 z m 93.48,0 h -15.591 v 15.59 h 15.591 z m 93.63,0 h -15.59 v 15.59 h 15.59 z m 94.874,0 h -15.591 v 15.59 h 15.591 z m 93.543,0 h -15.59 v 15.59 h 15.59 z m 0,-46.889 h -15.59 v 15.59 h 15.59 z m -93.543,0 h -15.591 v 15.59 h 15.591 z m -94.874,0 h -15.59 v 15.59 h 15.59 z m -93.63,0 h -15.591 v 15.59 h 15.591 z m -93.48,0 h -15.591 v 15.59 h 15.591 z m -46.835,0 h -15.59 v 15.59 h 15.59 z m 93.543,0 H 288 v 15.59 h 15.59 z m 93.543,0 h -15.59 v 15.59 h 15.59 z m 94.961,0 h -15.59 v 15.59 h 15.59 z m 93.543,0 h -15.59 v 15.59 h 15.59 z m 93.544,0 H 663.59 v 15.59 h 15.591 z m -46.772,-46.889 h -15.59 v 15.59 h 15.59 z m -93.543,0 h -15.591 v 15.59 h 15.591 z m -94.874,0 h -15.59 v 15.59 h 15.59 z m -93.63,0 h -15.591 v 15.59 h 15.591 z m -93.48,0 h -15.591 v 15.59 h 15.591 z m -46.835,0 h -15.59 v 15.59 h 15.59 z m 93.543,0 H 288 v 15.59 h 15.59 z m 93.543,0 h -15.59 v 15.59 h 15.59 z m 94.961,0 h -15.59 v 15.59 h 15.59 z m 93.543,0 h -15.59 v 15.59 h 15.59 z m 93.544,0 H 663.59 v 15.59 h 15.591 z"
       fill-opacity="0"
       stroke="#ff0000"
       stroke-width="1"
       id="path1519" />
  </g>
</svg>
